<mxfile host="app.diagrams.net" modified="2023-11-19T14:41:33.366Z" agent="Mozilla/5.0 (Macintosh; Intel Mac OS X 10.15; rv:109.0) Gecko/20100101 Firefox/119.0" etag="AylLhN58wM2urmNeD2HX" version="22.1.3" type="github">
  <diagram name="Page-1" id="yFYBs1WWLit-WnD-t77l">
    <mxGraphModel dx="954" dy="1652" grid="1" gridSize="10" guides="1" tooltips="1" connect="1" arrows="1" fold="1" page="1" pageScale="1" pageWidth="850" pageHeight="1100" math="0" shadow="0">
      <root>
        <mxCell id="0" />
        <mxCell id="1" parent="0" />
        <mxCell id="pwcbLZR8e_9ubKl_FXif-44" value="" style="html=1;overflow=block;blockSpacing=1;whiteSpace=wrap;fontSize=15;fontColor=#3a414a;spacing=3.8;strokeColor=#3a414a;strokeOpacity=100;rounded=1;absoluteArcSize=1;arcSize=9;strokeWidth=0.8;lucidId=P-_KfFqmB5sf;fontStyle=1" parent="1" vertex="1">
          <mxGeometry x="515" y="-730" width="105" height="30" as="geometry" />
        </mxCell>
        <mxCell id="Pz5DXAKSyCwG7D6-gLFf-4" value="Network" style="html=1;overflow=block;blockSpacing=1;whiteSpace=wrap;ellipse;shape=cloud;fontSize=15;fontColor=#3a414a;spacing=3.8;strokeColor=#3a414a;strokeOpacity=100;rounded=1;absoluteArcSize=1;arcSize=9;strokeWidth=0.8;lucidId=P-_KW_uM1pLi;fontStyle=1" parent="1" vertex="1">
          <mxGeometry x="515" y="-200" width="120" height="90" as="geometry" />
        </mxCell>
        <mxCell id="Pz5DXAKSyCwG7D6-gLFf-7" value="&lt;b&gt;&lt;font style=&quot;font-size: 14px;&quot;&gt;Networking Subsystems&lt;br&gt;&lt;/font&gt;&lt;/b&gt;" style="text;html=1;align=center;verticalAlign=middle;resizable=0;points=[];autosize=1;strokeColor=none;fillColor=none;" parent="1" vertex="1">
          <mxGeometry x="678.46" y="-220" width="190" height="30" as="geometry" />
        </mxCell>
        <mxCell id="Pz5DXAKSyCwG7D6-gLFf-6" value="" style="ellipse;whiteSpace=wrap;html=1;aspect=fixed;fillColor=#e51400;fontColor=#ffffff;strokeColor=#B20000;" parent="1" vertex="1">
          <mxGeometry x="667.83" y="-215" width="20" height="20" as="geometry" />
        </mxCell>
        <mxCell id="Pz5DXAKSyCwG7D6-gLFf-11" value="&lt;b style=&quot;font-size: 14px;&quot;&gt;Compute Subsystems&lt;br&gt;&lt;/b&gt;" style="text;html=1;align=center;verticalAlign=middle;resizable=0;points=[];autosize=1;strokeColor=none;fillColor=none;" parent="1" vertex="1">
          <mxGeometry x="876.46" y="-220" width="170" height="30" as="geometry" />
        </mxCell>
        <mxCell id="Pz5DXAKSyCwG7D6-gLFf-10" value="" style="ellipse;whiteSpace=wrap;html=1;aspect=fixed;fillColor=#1ba1e2;fontColor=#ffffff;strokeColor=#006EAF;" parent="1" vertex="1">
          <mxGeometry x="864.4599999999999" y="-215" width="20" height="20" as="geometry" />
        </mxCell>
        <mxCell id="Pz5DXAKSyCwG7D6-gLFf-15" value="&lt;b style=&quot;font-size: 14px;&quot;&gt;Memory &amp;amp; Storage&lt;br&gt;&lt;/b&gt;" style="text;html=1;align=center;verticalAlign=middle;resizable=0;points=[];autosize=1;strokeColor=none;fillColor=none;" parent="1" vertex="1">
          <mxGeometry x="681.32" y="-180" width="150" height="30" as="geometry" />
        </mxCell>
        <mxCell id="Pz5DXAKSyCwG7D6-gLFf-14" value="" style="ellipse;whiteSpace=wrap;html=1;aspect=fixed;fillColor=#fff2cc;gradientColor=#ffd966;strokeColor=#d6b656;" parent="1" vertex="1">
          <mxGeometry x="667.83" y="-175" width="20" height="20" as="geometry" />
        </mxCell>
        <mxCell id="Pz5DXAKSyCwG7D6-gLFf-18" value="&lt;b&gt;&lt;font style=&quot;font-size: 14px;&quot;&gt;Management&lt;/font&gt;&lt;/b&gt;" style="text;html=1;align=center;verticalAlign=middle;resizable=0;points=[];autosize=1;strokeColor=none;fillColor=none;" parent="1" vertex="1">
          <mxGeometry x="874.46" y="-180" width="110" height="30" as="geometry" />
        </mxCell>
        <mxCell id="Pz5DXAKSyCwG7D6-gLFf-17" value="" style="ellipse;whiteSpace=wrap;html=1;aspect=fixed;fillColor=#647687;strokeColor=#314354;fontColor=#ffffff;" parent="1" vertex="1">
          <mxGeometry x="864.46" y="-175" width="20" height="20" as="geometry" />
        </mxCell>
        <mxCell id="Pz5DXAKSyCwG7D6-gLFf-19" value="" style="html=1;overflow=block;blockSpacing=1;whiteSpace=wrap;fontSize=15;fontColor=#3a414a;spacing=3.8;strokeColor=#3a414a;strokeOpacity=100;rounded=1;absoluteArcSize=1;arcSize=9;strokeWidth=0.8;lucidId=P-_KfFqmB5sf;fontStyle=1" parent="1" vertex="1">
          <mxGeometry x="525" y="-719" width="105" height="30" as="geometry" />
        </mxCell>
        <mxCell id="Pz5DXAKSyCwG7D6-gLFf-20" value="Host" style="html=1;overflow=block;blockSpacing=1;whiteSpace=wrap;fontSize=15;fontColor=#3a414a;spacing=3.8;strokeColor=#3a414a;strokeOpacity=100;rounded=1;absoluteArcSize=1;arcSize=9;strokeWidth=0.8;lucidId=P-_KfFqmB5sf;fontStyle=1" parent="1" vertex="1">
          <mxGeometry x="535" y="-709" width="105" height="30" as="geometry" />
        </mxCell>
        <mxCell id="pwcbLZR8e_9ubKl_FXif-4" value="" style="rounded=0;whiteSpace=wrap;html=1;fillColor=#eeeeee;strokeColor=#36393d;" parent="1" vertex="1">
          <mxGeometry x="454.22" y="-639" width="585.78" height="399" as="geometry" />
        </mxCell>
        <mxCell id="pwcbLZR8e_9ubKl_FXif-11" value="L3 Cache &lt;br&gt;(Last Level&lt;br&gt;Cache)" style="html=1;overflow=block;blockSpacing=1;whiteSpace=wrap;fontSize=14;spacing=3.8;strokeColor=#d6b656;strokeOpacity=100;fillOpacity=100;rounded=1;absoluteArcSize=1;arcSize=0;fillColor=#fff2cc;strokeWidth=0.8;lucidId=ra7KsMhs7qSS;fontStyle=1;gradientColor=#ffd966;" parent="1" vertex="1">
          <mxGeometry x="690" y="-620" width="110" height="360" as="geometry" />
        </mxCell>
        <mxCell id="pwcbLZR8e_9ubKl_FXif-12" value="Compute Core Complex (16xARM Neoverse N1)" style="html=1;overflow=block;blockSpacing=1;whiteSpace=wrap;fontSize=14;fontColor=#ffffff;spacing=3.8;strokeColor=#006EAF;strokeOpacity=100;fillOpacity=100;rounded=1;absoluteArcSize=1;arcSize=9;fillColor=#1ba1e2;strokeWidth=0.8;lucidId=Ca7KuzQSQbgJ;fontStyle=1" parent="1" vertex="1">
          <mxGeometry x="819.03" y="-620" width="204.34" height="79" as="geometry" />
        </mxCell>
        <mxCell id="pwcbLZR8e_9ubKl_FXif-15" value="Look-aside Crypto and Compression Engine" style="html=1;overflow=block;blockSpacing=1;whiteSpace=wrap;fontSize=14;spacing=3.8;strokeColor=#d79b00;strokeOpacity=100;fillOpacity=100;rounded=1;absoluteArcSize=1;arcSize=9;fillColor=#ffcd28;strokeWidth=0.8;lucidId=pb7KfrjJ54s0;fontStyle=1;gradientColor=#ffa500;" parent="1" vertex="1">
          <mxGeometry x="819.0268674698796" y="-340" width="207.71" height="80" as="geometry" />
        </mxCell>
        <mxCell id="pwcbLZR8e_9ubKl_FXif-16" value="LPDDR4 Controllers" style="html=1;overflow=block;blockSpacing=1;whiteSpace=wrap;fontSize=14;spacing=3.8;strokeColor=#d6b656;strokeOpacity=100;fillOpacity=100;rounded=1;absoluteArcSize=1;arcSize=9;fillColor=#fff2cc;strokeWidth=0.8;lucidId=ub7KovHv9te5;fontStyle=1;gradientColor=#ffd966;" parent="1" vertex="1">
          <mxGeometry x="817.3399999999999" y="-530" width="204.34" height="80" as="geometry" />
        </mxCell>
        <mxCell id="pwcbLZR8e_9ubKl_FXif-17" value="Management Complex&lt;br&gt;(2 x ARM A53)" style="html=1;overflow=block;blockSpacing=1;whiteSpace=wrap;fontSize=14;fontColor=#ffffff;spacing=3.8;strokeColor=#314354;strokeOpacity=100;fillOpacity=100;rounded=1;absoluteArcSize=1;arcSize=9;fillColor=#647687;strokeWidth=0.8;lucidId=Fb7Kvabg3F.T;fontStyle=1" parent="1" vertex="1">
          <mxGeometry x="819.03" y="-440" width="204.34" height="80" as="geometry" />
        </mxCell>
        <mxCell id="pwcbLZR8e_9ubKl_FXif-6" value="PCIe Gen4 16 Lanes" style="html=1;overflow=block;blockSpacing=1;whiteSpace=wrap;fontSize=14;fontColor=#ffffff;spacing=3.8;strokeColor=#B20000;strokeOpacity=100;fillOpacity=100;rounded=1;absoluteArcSize=1;arcSize=9;fillColor=#e51400;strokeWidth=0.8;lucidId=1~6K_v-VPYom;fontStyle=1" parent="1" vertex="1">
          <mxGeometry x="466.8334939759036" y="-620" width="204.33734939759034" height="60" as="geometry" />
        </mxCell>
        <mxCell id="pwcbLZR8e_9ubKl_FXif-9" value="Inline Crypto&amp;nbsp;" style="html=1;overflow=block;blockSpacing=1;whiteSpace=wrap;fontSize=14;fontColor=#ffffff;spacing=3.8;strokeColor=#B20000;strokeOpacity=100;fillOpacity=100;rounded=1;absoluteArcSize=1;arcSize=9;fillColor=#e51400;strokeWidth=0.8;lucidId=fa7K2U30uZY5;fontStyle=1" parent="1" vertex="1">
          <mxGeometry x="466.8368674698795" y="-370" width="90" height="40" as="geometry" />
        </mxCell>
        <mxCell id="pwcbLZR8e_9ubKl_FXif-45" value="" style="shape=singleArrow;arrowWidth=0.5;arrowSize=0.45;whiteSpace=wrap;fontSize=13;spacing=3.8;strokeColor=#3a414a;strokeOpacity=100;rounded=1;absoluteArcSize=1;arcSize=9;rotation=270;strokeWidth=0.8;html=1;" parent="1" vertex="1">
          <mxGeometry x="578.59" y="-677.82" width="40.94" height="33.25" as="geometry" />
        </mxCell>
        <mxCell id="pwcbLZR8e_9ubKl_FXif-46" value="" style="shape=singleArrow;arrowWidth=0.5;arrowSize=0.465;whiteSpace=wrap;fontSize=13;spacing=3.8;strokeColor=#3a414a;strokeOpacity=100;rounded=1;absoluteArcSize=1;arcSize=9;rotation=90;strokeWidth=0.8;html=1;" parent="1" vertex="1">
          <mxGeometry x="535.77" y="-673.93" width="37.63" height="35" as="geometry" />
        </mxCell>
        <mxCell id="Pz5DXAKSyCwG7D6-gLFf-2" value="" style="shape=singleArrow;arrowWidth=0.5;arrowSize=0.45;whiteSpace=wrap;fontSize=13;spacing=3.8;strokeColor=#3a414a;strokeOpacity=100;rounded=1;absoluteArcSize=1;arcSize=9;rotation=270;strokeWidth=0.8;html=1;" parent="1" vertex="1">
          <mxGeometry x="566.74" y="-231.51" width="50" height="33.25" as="geometry" />
        </mxCell>
        <mxCell id="Pz5DXAKSyCwG7D6-gLFf-3" value="" style="shape=singleArrow;arrowWidth=0.5;arrowSize=0.465;whiteSpace=wrap;fontSize=13;spacing=3.8;strokeColor=#3a414a;strokeOpacity=100;rounded=1;absoluteArcSize=1;arcSize=9;rotation=90;strokeWidth=0.8;html=1;" parent="1" vertex="1">
          <mxGeometry x="527.31" y="-230" width="46.09" height="35" as="geometry" />
        </mxCell>
        <mxCell id="pwcbLZR8e_9ubKl_FXif-7" value="Protocol Engines&lt;br&gt;&lt;br&gt;&lt;br&gt;&lt;br&gt;&lt;br&gt;" style="html=1;overflow=block;blockSpacing=1;whiteSpace=wrap;fontSize=14;fontColor=#ffffff;spacing=3.8;strokeColor=#B20000;strokeOpacity=100;fillOpacity=100;rounded=1;absoluteArcSize=1;arcSize=9;fillColor=#e51400;strokeWidth=0.8;lucidId=~~6K7ca9YZYn;fontStyle=1" parent="1" vertex="1">
          <mxGeometry x="465.66" y="-550" width="204.34" height="100" as="geometry" />
        </mxCell>
        <mxCell id="pwcbLZR8e_9ubKl_FXif-8" value="Packet Processing Pipeline" style="html=1;overflow=block;blockSpacing=1;whiteSpace=wrap;fontSize=14;fontColor=#ffffff;spacing=3.8;strokeColor=#B20000;strokeOpacity=100;fillOpacity=100;rounded=1;absoluteArcSize=1;arcSize=9;fillColor=#e51400;strokeWidth=0.8;lucidId=ca7KPe8sUfcH;fontStyle=1" parent="1" vertex="1">
          <mxGeometry x="466.83349397590365" y="-440" width="204.33734939759034" height="60" as="geometry" />
        </mxCell>
        <mxCell id="pwcbLZR8e_9ubKl_FXif-14" value="NVMe" style="html=1;overflow=block;blockSpacing=1;whiteSpace=wrap;fontSize=14;spacing=3.8;strokeColor=#d79b00;strokeOpacity=100;fillOpacity=100;rounded=1;absoluteArcSize=1;arcSize=9;fillColor=#FF6666;strokeWidth=0.8;lucidId=Ua7KMCPptFoE;fontStyle=1;gradientColor=#ffa500;" parent="1" vertex="1">
          <mxGeometry x="604" y="-510" width="60" height="45" as="geometry" />
        </mxCell>
        <mxCell id="pwcbLZR8e_9ubKl_FXif-23" value="LAN" style="html=1;overflow=block;blockSpacing=1;whiteSpace=wrap;fontSize=14;spacing=3.8;strokeColor=#d79b00;strokeOpacity=100;fillOpacity=100;rounded=1;absoluteArcSize=1;arcSize=9;fillColor=#FF6666;strokeWidth=0.8;lucidId=Ua7KMCPptFoE;fontStyle=1;gradientColor=#ffa500;" parent="1" vertex="1">
          <mxGeometry x="473.9999999999999" y="-510" width="60" height="45" as="geometry" />
        </mxCell>
        <mxCell id="pwcbLZR8e_9ubKl_FXif-24" value="RDMA" style="html=1;overflow=block;blockSpacing=1;whiteSpace=wrap;fontSize=14;spacing=3.8;strokeColor=#d79b00;strokeOpacity=100;fillOpacity=100;rounded=1;absoluteArcSize=1;arcSize=8;fillColor=#FF6666;strokeWidth=0.8;lucidId=Ua7KMCPptFoE;fontStyle=1;gradientColor=#ffa500;" parent="1" vertex="1">
          <mxGeometry x="539" y="-510.5" width="60" height="46" as="geometry" />
        </mxCell>
        <mxCell id="pwcbLZR8e_9ubKl_FXif-43" value="Traffic Shaper" style="html=1;overflow=block;blockSpacing=1;whiteSpace=wrap;fontSize=14;fontColor=#ffffff;spacing=3.8;strokeColor=#B20000;strokeOpacity=100;fillOpacity=100;rounded=1;absoluteArcSize=1;arcSize=9;fillColor=#e51400;strokeWidth=0.8;lucidId=fa7K2U30uZY5;fontStyle=1" parent="1" vertex="1">
          <mxGeometry x="579.9968674698795" y="-370" width="90" height="40" as="geometry" />
        </mxCell>
        <mxCell id="pwcbLZR8e_9ubKl_FXif-10" value="&lt;div style=&quot;font-size: 14px;&quot;&gt;Ethernet Logic&lt;/div&gt;&lt;div style=&quot;font-size: 14px;&quot;&gt;(200 : 4x56G)&lt;/div&gt;" style="html=1;overflow=block;blockSpacing=1;whiteSpace=wrap;fontSize=14;fontColor=#ffffff;spacing=3.8;strokeColor=#B20000;strokeOpacity=100;fillOpacity=100;rounded=1;absoluteArcSize=1;arcSize=9;fillColor=#e51400;strokeWidth=0.8;lucidId=ja7KJcIPla4~;fontStyle=1" parent="1" vertex="1">
          <mxGeometry x="467.83" y="-320" width="200" height="61" as="geometry" />
        </mxCell>
      </root>
    </mxGraphModel>
  </diagram>
</mxfile>
